<?xml version="1.0" encoding="UTF-8"?>
<svg width="278px" height="91px" viewBox="0 0 278 91" version="1.1" xmlns="http://www.w3.org/2000/svg" xmlns:xlink="http://www.w3.org/1999/xlink">
    <!-- Generator: Sketch 61.1 (89650) - https://sketch.com -->
    <title>logo-gray</title>
    <desc>Created with Sketch.</desc>
    <g id="logo-gray" stroke="none" stroke-width="1" fill="none" fill-rule="evenodd">
        <g id="Group" transform="translate(0.000000, 8.000000)">
            <path d="M98.0527662,60.5747558 L107.194273,60.5747558 L107.194273,32.0250584 C109.564313,28.4774896 112.950136,26.3657727 117.097752,26.3657727 C122.684108,26.3657727 127.424188,30.3357571 127.424188,36.8396935 L127.424188,60.5747558 L136.565875,60.5747558 L136.565875,35.6571104 C136.565875,24.0852701 128.101497,17.5812977 118.452009,17.5812977 C112.442335,17.5812977 107.448264,20.1997688 104.147104,24.0852701 C100.676797,19.7773532 95.2595883,17.5812977 89.1652506,17.5812977 C83.9171883,17.5812977 80.4468818,19.3551182 77.8228506,21.804587 L77.8228506,18.0880519 L68.6813442,18.0880519 L68.6813442,60.5747558 L77.8228506,60.5747558 L77.8228506,31.7716091 C80.3622182,28.3930065 83.9171883,26.3657727 87.8954766,26.3657727 C93.8206675,26.3657727 98.0527662,29.9978247 98.0527662,36.4172779 L98.0527662,60.5747558 Z" id="Path" fill="#0C1218" fill-rule="nonzero"></path>
            <path d="M166.955788,51.9024195 C159.253203,51.9024195 153.497339,45.8208987 153.497339,38.4723117 C153.497339,30.9547584 159.337686,25.2111701 166.955788,25.2111701 C174.658374,25.2111701 180.414057,30.9547584 180.414057,38.4723117 C180.414057,45.8208987 174.827701,51.9024195 166.955788,51.9024195 Z M166.955788,60.687039 C180.414057,60.687039 189.64113,50.3820844 189.64113,38.4723117 C189.64113,26.4780558 180.075583,16.4265687 166.955788,16.4265687 C153.920477,16.4265687 144.355832,26.4780558 144.355832,38.4723117 C144.355832,50.4665675 153.497339,60.687039 166.955788,60.687039 Z" id="Shape" fill="#0C1218" fill-rule="nonzero"></path>
            <path d="M189.758468,73.9194779 C199.576922,73.6660286 205.501571,69.4992779 205.501571,58.2653701 L205.501571,18.0880519 L196.360065,18.0880519 L196.360065,58.8565714 C196.360065,64.1779247 194.074688,67.1342922 189.673623,67.3032584 L189.758468,73.9194779 Z" id="Path" fill="#0C1218" fill-rule="nonzero"></path>
            <polygon id="Path" fill="#0C1218" fill-rule="nonzero" points="216.166662 60.5747558 225.393013 60.5747558 225.393013 18.0880519 216.166662 18.0880519"></polygon>
            <polygon id="Path" fill="#0C1218" fill-rule="nonzero" points="266.757247 60.5747558 277.67687 60.5747558 261.933766 39.2046792 277.337494 18.0880519 266.672403 18.0880519 256.007312 32.447474 245.511909 18.0880519 234.761974 18.0880519 249.997818 39.1201961 234.254714 60.5747558 245.089494 60.5747558 255.922468 45.8775818"></polygon>
            <path d="M8.20197481,20.1600545 C11.9132929,20.1600545 14.9219208,17.1513905 14.9219208,13.4400544 C14.9219208,9.72873636 11.9132929,6.72012649 8.20197481,6.72012649 C4.49065675,6.72012649 1.48203605,9.72873636 1.48203605,13.4400544 C1.48203605,17.1513905 4.49065675,20.1600545 8.20197481,20.1600545 Z" id="Path" fill="#FC0D30"></path>
            <path d="M8.20197481,40.3195675 C11.9132929,40.3195675 14.9219208,37.3108494 14.9219208,33.5995494 C14.9219208,29.8882494 11.9132929,26.8795312 8.20197481,26.8795312 C4.49065675,26.8795312 1.48203605,29.8882494 1.48203605,33.5995494 C1.48203605,37.3108494 4.49065675,40.3195675 8.20197481,40.3195675 Z" id="Path" fill-opacity="0.36" fill="#FC0D30"></path>
            <path d="M28.3617766,20.1600545 C32.0730766,20.1600545 35.0817948,17.1513905 35.0817948,13.4400544 C35.0817948,9.72873636 32.0730766,6.72012649 28.3617766,6.72012649 C24.6504766,6.72012649 21.6417584,9.72873636 21.6417584,13.4400544 C21.6417584,17.1513905 24.6504766,20.1600545 28.3617766,20.1600545 Z" id="Path" fill-opacity="0.36" fill="#FC0D30"></path>
            <path d="M28.3617766,40.3195675 C32.0730766,40.3195675 35.0817948,37.3108494 35.0817948,33.5995494 C35.0817948,29.8882494 32.0730766,26.8795312 28.3617766,26.8795312 C24.6504766,26.8795312 21.6417584,29.8882494 21.6417584,33.5995494 C21.6417584,37.3108494 24.6504766,40.3195675 28.3617766,40.3195675 Z" id="Path" fill="#FC0D30"></path>
            <path d="M48.5216506,20.1600545 C52.2329506,20.1600545 55.2416688,17.1513905 55.2416688,13.4400544 C55.2416688,9.72873636 52.2329506,6.72012649 48.5216506,6.72012649 C44.8103506,6.72012649 41.801813,9.72873636 41.801813,13.4400544 C41.801813,17.1513905 44.8103506,20.1600545 48.5216506,20.1600545 Z" id="Path" fill="#FC0D30"></path>
            <path d="M48.5216506,40.3195675 C52.2329506,40.3195675 55.2416688,37.3108494 55.2416688,33.5995494 C55.2416688,29.8882494 52.2329506,26.8795312 48.5216506,26.8795312 C44.8103506,26.8795312 41.801813,29.8882494 41.801813,33.5995494 C41.801813,37.3108494 44.8103506,40.3195675 48.5216506,40.3195675 Z" id="Path" fill-opacity="0.36" fill="#FC0D30"></path>
            <path d="M8.20197481,60.4789 C11.9132929,60.4789 14.9219208,57.4703623 14.9219208,53.7590623 C14.9219208,50.0477623 11.9132929,47.0390442 8.20197481,47.0390442 C4.49065675,47.0390442 1.48203605,50.0477623 1.48203605,53.7590623 C1.48203605,57.4703623 4.49065675,60.4789 8.20197481,60.4789 Z" id="Path" fill="#FC0D30"></path>
            <path d="M28.3617766,60.4789 C32.0730766,60.4789 35.0817948,57.4703623 35.0817948,53.7590623 C35.0817948,50.0477623 32.0730766,47.0390442 28.3617766,47.0390442 C24.6504766,47.0390442 21.6417584,50.0477623 21.6417584,53.7590623 C21.6417584,57.4703623 24.6504766,60.4789 28.3617766,60.4789 Z" id="Path" fill-opacity="0.36" fill="#FC0D30"></path>
            <path d="M48.5216506,60.4789 C52.2329506,60.4789 55.2416688,57.4703623 55.2416688,53.7590623 C55.2416688,50.0477623 52.2329506,47.0390442 48.5216506,47.0390442 C44.8103506,47.0390442 41.801813,50.0477623 41.801813,53.7590623 C41.801813,57.4703623 44.8103506,60.4789 48.5216506,60.4789 Z" id="Path" fill="#FC0D30"></path>
            <path d="M200.840558,13.43991 C204.552039,13.43991 207.559494,10.4313001 207.559494,6.71998208 C207.559494,3.00864597 204.552039,3.23270675e-05 200.840558,3.23270675e-05 C197.129078,3.23270675e-05 194.119818,3.00864597 194.119818,6.71998208 C194.119818,10.4313001 197.129078,13.43991 200.840558,13.43991 Z" id="Path" fill="#FC0D30"></path>
            <path d="M220.627299,13.4398739 C224.338779,13.4398739 227.346234,10.431264 227.346234,6.71994597 C227.346234,3.00860987 224.338779,-2.2239639e-06 220.627299,-2.2239639e-06 C216.915818,-2.2239639e-06 213.906558,3.00860987 213.906558,6.71994597 C213.906558,10.431264 216.915818,13.4398739 220.627299,13.4398739 Z" id="Path" fill="#FC0D30"></path>
        </g>
    </g>
</svg>